<mxfile host="65bd71144e">
    <diagram id="Opd5tRMl9q53dz8CWkNL" name="PÃ¡gina-1">
        <mxGraphModel dx="990" dy="481" grid="1" gridSize="10" guides="1" tooltips="1" connect="1" arrows="1" fold="1" page="1" pageScale="1" pageWidth="827" pageHeight="1169" math="0" shadow="0">
            <root>
                <mxCell id="0"/>
                <mxCell id="1" parent="0"/>
                <mxCell id="2" value="Device Registration" style="swimlane;html=1;startSize=38;horizontal=0;childLayout=flowLayout;flowOrientation=west;resizable=0;interRankCellSpacing=50;containerType=tree;sketch=1;expand=1;autosize=1;" parent="1" vertex="1">
                    <mxGeometry x="20" y="190" width="478" height="80" as="geometry"/>
                </mxCell>
                <mxCell id="3" value="Start" style="whiteSpace=wrap;html=1;" parent="2" vertex="1">
                    <mxGeometry x="58" y="20" width="100" height="40" as="geometry"/>
                </mxCell>
                <mxCell id="15" style="edgeStyle=none;html=1;entryX=0;entryY=0.5;entryDx=0;entryDy=0;noEdgeStyle=1;orthogonal=1;" edge="1" parent="2" source="6" target="14">
                    <mxGeometry relative="1" as="geometry">
                        <Array as="points">
                            <mxPoint x="320" y="40"/>
                            <mxPoint x="346" y="40"/>
                        </Array>
                    </mxGeometry>
                </mxCell>
                <mxCell id="6" value="Client connects via websocket" style="whiteSpace=wrap;html=1;" parent="2" vertex="1">
                    <mxGeometry x="208" y="20" width="100" height="40" as="geometry"/>
                </mxCell>
                <mxCell id="7" value="" style="html=1;curved=1;noEdgeStyle=1;orthogonal=1;" parent="2" source="3" target="6" edge="1">
                    <mxGeometry relative="1" as="geometry">
                        <Array as="points">
                            <mxPoint x="170" y="40"/>
                            <mxPoint x="196" y="40"/>
                        </Array>
                    </mxGeometry>
                </mxCell>
                <mxCell id="14" value="Gets the deviceId" style="whiteSpace=wrap;html=1;" vertex="1" parent="2">
                    <mxGeometry x="358" y="20" width="100" height="40" as="geometry"/>
                </mxCell>
            </root>
        </mxGraphModel>
    </diagram>
</mxfile>